<?xml version="1.0" encoding="UTF-8"?>
<!DOCTYPE svg PUBLIC "-//W3C//DTD SVG 1.1//EN" "http://www.w3.org/Graphics/SVG/1.1/DTD/svg11.dtd">

<!-- PaintCode Trial Version - www.paintcodeapp.com -->
<svg version="1.1" xmlns="http://www.w3.org/2000/svg" xmlns:xlink="http://www.w3.org/1999/xlink" width="794" height="1123"  xml:space="preserve" id="logoCanvas">
    <!-- Generated by PaintCode (www.paintcodeapp.com) -->
    <g id="logoCanvas-layer1">
        <g id="logoCanvas-g3475">
            <path id="logoCanvas-path3449" stroke="none" fill="rgb(255, 255, 255)" d="M 112.28,284 C 111.93,284.04 111.61,284.08 111.29,284.11 111.45,284.44 111.54,284.84 111.78,285.09 112.92,286.34 114.11,287.54 115.27,288.76 115.58,289.09 115.87,289.45 116.22,289.75 115.88,288.19 114.91,287.08 113.7,286.1 114.01,286.18 114.31,286.28 114.61,286.33 114.79,286.36 115.08,286.36 115.13,286.26 115.21,286.11 115.2,285.85 115.12,285.69 114.91,285.22 114.64,284.79 114.33,284.23 115.42,284.93 116.19,285.77 116.72,286.83 117.58,288.55 117.75,290.38 117.56,292.27 117.31,294.76 116.52,297.09 115.44,299.44 115.37,299.24 115.33,299.13 115.28,299.02 115.23,298.93 115.15,298.84 115.02,298.67 113.88,301.17 112.34,303.12 109.25,303.41 109.91,302.85 110.48,302.41 111,301.92 112.03,300.98 112.52,299.77 112.57,298.39 112.58,298.1 112.34,297.8 112.21,297.51 111.96,297.7 111.63,297.83 111.49,298.08 111.18,298.63 110.92,299.22 110.74,299.82 109.79,303.07 106.37,304.27 104.01,303.58 104.26,303.51 104.51,303.43 104.77,303.37 105.94,303.07 107.13,302.8 108.05,301.93 108.32,301.67 108.74,301.41 108.48,300.98 108.22,300.55 107.75,300.71 107.38,300.87 107.04,301.02 106.73,301.26 106.42,301.49 103.74,303.51 99.82,303.45 97.69,300.11 97.66,300.05 97.64,299.98 97.56,299.79 98.62,300.6 99.64,301.22 100.86,301.33 101.58,301.39 102.31,301.32 103.03,301.28 103.21,301.27 103.43,301.18 103.54,301.05 103.68,300.89 103.8,300.66 103.79,300.46 103.79,300.35 103.55,300.16 103.39,300.14 102.84,300.07 102.28,300.07 101.73,300 100.73,299.88 99.71,299.77 98.72,299.57 97.83,299.38 97.23,298.77 96.78,297.98 95.7,296.08 95.68,294.1 96.27,292.07 96.49,291.31 96.79,290.57 97.04,289.87 96.96,291.1 96.8,292.36 96.8,293.61 96.81,294.94 97.3,296.13 98.2,297.12 98.32,297.26 98.48,297.4 98.65,297.45 98.82,297.5 99.07,297.48 99.18,297.38 99.27,297.29 99.24,297.04 99.22,296.86 99.2,296.74 99.11,296.61 99.03,296.51 97.41,294.39 97.27,292.03 97.97,289.56 98.18,288.81 98.46,288.08 98.71,287.34 98.79,287.31 98.86,287.27 98.94,287.23 98.99,287.36 99.04,287.49 99.1,287.6 99.65,288.61 100.58,288.84 101.62,288.87 102.88,288.9 104.06,289.18 105.06,289.99 106.11,290.84 106.86,291.89 107.11,293.22 107.34,294.43 106.88,295.38 105.9,296.06 104.83,296.81 103.68,296.81 102.58,296.19 101.29,295.47 100.73,294.25 101.06,293.07 101.24,292.43 101.7,292.08 102.36,292.06 103.11,292.05 103.79,292.46 103.97,293.05 104,293.16 103.98,293.29 103.99,293.43 103.61,293.22 103.29,292.97 102.93,292.86 102.33,292.67 101.93,293.02 101.99,293.64 102.07,294.42 102.37,295.09 103.15,295.43 103.78,295.7 104.37,295.61 104.88,295.17 105.51,294.63 105.76,293.93 105.55,293.1 105.05,291.15 102.35,289.95 100.87,291.11 98.94,292.63 98.52,294.97 100.5,296.77 102.42,298.51 104.76,299.09 107.31,298.62 109.81,298.16 111.35,296.3 111.64,293.55 111.65,293.38 111.67,293.21 111.69,292.93 112.96,294.17 113.66,295.62 114.03,297.27 114.48,296.66 114.59,294.65 114.28,293.3 113.98,291.95 113.33,290.77 112.51,289.55 113.98,290.38 114.96,291.48 115.38,293.07 115.45,293.03 115.52,292.99 115.6,292.96 115.53,292.56 115.48,292.15 115.38,291.76 115.04,290.45 114.34,289.32 113.41,288.36 112.25,287.17 110.98,286.07 109.81,284.88 109.41,284.49 109.09,283.98 108.86,283.47 108.74,283.21 108.78,282.73 108.96,282.53 109.13,282.35 109.6,282.3 109.88,282.38 110.86,282.65 111.6,283.3 112.28,284 Z M 112.28,284" />
            <path id="logoCanvas-path3451" stroke="none" fill="rgb(255, 255, 255)" d="M 122.87,280.65 C 122.5,279.9 122.15,279.14 121.75,278.4 120.94,276.93 119.72,275.95 118.14,275.36 117.03,274.95 115.99,274.41 114.88,273.9 115.02,277.1 116.98,279.11 119.61,280.69 118.87,280.87 117.51,280.54 116.65,280.01 115.05,279.04 114.18,277.52 113.52,275.86 113.08,274.75 112.72,273.62 112.33,272.5 111.91,271.26 111.02,270.46 109.99,270.4 108.56,270.33 107.42,271.47 107.3,273.12 107.2,274.34 107.48,275.48 107.98,276.58 108.05,276.74 108.11,276.9 108.17,277.06 108.17,277.07 108.15,277.09 108.11,277.15 107.08,276.52 106.29,275.65 105.94,274.51 105.62,273.48 105.52,272.38 105.3,271.32 105.23,271.02 105.15,270.68 104.96,270.45 103.76,269.01 103.06,267.44 103.48,265.52 103.49,265.47 103.51,265.42 103.57,265.27 103.91,265.77 104.2,266.23 104.54,266.66 105.04,267.3 105.58,267.93 106.11,268.56 106.2,268.66 106.3,268.77 106.42,268.82 106.74,268.95 107.15,269.21 107.38,269.11 107.6,269.01 107.73,268.51 107.74,268.18 107.78,266.78 107.62,265.41 106.82,264.21 106.41,263.59 105.65,263.26 104.96,263.47 102.6,264.2 100.96,265.72 99.99,268.09 102.5,268.68 104.12,270.09 104.39,272.93 104.05,272.62 103.81,272.41 103.56,272.19 102.77,271.48 101.89,270.9 100.84,270.64 99.12,270.19 97.58,270.83 96.64,272.35 95.74,273.79 95.42,275.4 95.3,277.06 95.26,277.73 95.3,278.41 95.16,279.1 95.06,278.46 94.93,277.82 94.85,277.17 94.36,273.23 95.7,269.87 98.12,266.83 99.61,264.97 101.48,263.66 103.6,262.64 104.5,262.21 105.35,261.67 106.17,261.11 106.96,260.56 107.43,259.73 107.73,258.82 107.82,258.55 107.9,258.27 108.13,257.98 108.23,258.57 108.41,259.15 108.42,259.74 108.43,260.75 108.4,261.78 108.27,262.78 107.81,266.32 109.39,268.27 112.76,269.39 113.87,269.76 115.02,270.01 116.14,270.34 118.59,271.07 120.29,272.65 121.35,274.96 122.18,276.77 122.62,278.68 122.87,280.65 Z M 118.33,273.5 C 117.68,272.35 116.37,271.6 115.65,271.94 116.21,272.98 117.19,273.27 118.33,273.5 Z M 118.33,273.5" />
            <path id="logoCanvas-path3453" stroke="none" fill="rgb(255, 255, 255)" d="M 103.02,258.46 C 103.3,258.6 103.7,258.9 103.78,258.83 104.04,258.6 104.28,258.26 104.36,257.92 104.46,257.5 104.39,257.04 104.39,256.61 104.47,256.6 104.52,256.58 104.54,256.6 105.55,257.38 105.96,256.86 106.16,255.92 106.22,255.66 106.24,255.39 106.27,255.12 106.31,254.88 106.33,254.63 106.48,254.35 106.62,254.82 106.77,255.29 106.88,255.77 107.11,256.75 107.19,257.74 106.85,258.72 106.51,259.7 105.8,260.25 104.81,260.47 104.21,260.61 103.57,260.65 103.03,260.9 102.43,261.19 101.86,261.61 101.38,262.08 101.1,262.35 100.91,262.42 100.56,262.35 99.38,262.12 98.19,262.05 97.03,262.46 95.57,262.98 94.62,264.05 93.95,265.4 93.6,266.1 93.29,266.83 93.04,267.57 92.9,267.98 92.68,268.13 92.28,268.08 91.94,268.03 91.59,268.03 91.26,267.94 90.52,267.73 89.81,267.39 89.06,267.27 88.34,267.16 87.59,267.25 86.75,267.25 87.77,266.44 88.71,265.67 89.68,264.93 91.29,263.7 93.11,262.74 94.52,261.24 95.3,260.4 96.12,259.58 96.88,258.72 97.64,257.88 97.66,256.62 97.01,255.55 96.42,254.6 95.38,254.19 94.27,254.46 94.2,254.48 94.13,254.48 94.05,254.5 93.46,252.53 95.6,247.39 98.28,244.47 98.15,244.82 98,245.17 97.89,245.53 97.42,247.21 96.95,248.89 96.52,250.58 96.41,251.01 96.42,251.5 96.47,251.95 96.63,253.36 97.05,254.22 99.07,254.42 98.93,254.83 98.76,255.23 98.65,255.65 98.56,255.98 98.49,256.33 98.51,256.67 98.52,256.88 98.66,257.21 98.82,257.26 99.03,257.33 99.38,257.25 99.54,257.1 99.81,256.82 100.02,256.46 100.19,256.1 100.69,255.02 101.4,254.15 102.54,253.7 102.75,253.63 102.97,253.6 103.31,253.51 102.72,254.55 102.48,255.54 102.55,256.61 102.56,256.72 102.38,256.86 102.26,256.95 101.87,257.26 101.41,257.51 101.11,257.88 100.89,258.15 100.8,258.59 100.82,258.94 100.84,259.53 101.35,259.8 101.89,259.55 102.14,259.43 102.36,259.23 102.56,259.03 102.75,258.85 102.9,258.62 103.02,258.46 Z M 103.02,258.46" />
            <path id="logoCanvas-path3455" stroke="none" fill="rgb(255, 255, 255)" d="M 113.83,282.8 C 112.82,282.27 111.83,281.66 110.78,281.22 110.18,280.97 109.47,280.91 108.82,280.91 108.03,280.92 107.53,281.51 107.5,282.31 107.44,283.58 108.04,284.6 108.78,285.56 109.37,286.33 110.02,287.07 110.6,287.85 111.41,288.92 111.85,290.13 111.81,291.51 111.63,291.13 111.43,290.75 111.25,290.37 110.42,288.66 109.17,287.3 107.68,286.14 106.52,285.23 105.48,284.23 105,282.77 104.54,281.39 104.92,280.46 106.27,279.9 106.71,279.72 107.18,279.62 107.74,279.45 106.73,278.57 105.69,278.08 104.37,278.26 103.11,278.44 102.19,279.22 101.2,280.07 101.11,279.02 101.43,278.19 102.14,277.63 102.82,277.1 103.63,276.73 104.37,276.3 103.07,274.7 100.3,275.12 99.32,277.17 98.88,278.07 98.68,279.05 98.9,280.02 99.01,280.5 99.34,281.03 99.73,281.31 100.53,281.9 101.44,282.34 102.29,282.85 103.36,283.5 104.24,284.36 105,285.37 104.37,285.08 103.74,284.76 103.09,284.49 101.86,283.97 100.62,283.45 99.36,282.96 96.29,281.78 95.63,277.89 97.64,275.47 99.52,273.19 102.81,272.79 105.35,275.23 105.69,275.56 106.03,275.92 106.29,276.32 106.95,277.3 108.03,277.74 108.94,278.39 110.75,279.69 112.48,281.07 113.83,282.8 Z M 113.83,282.8" />
            <path id="logoCanvas-path3457" stroke="none" fill="rgb(255, 255, 255)" d="M 128.54,263.71 C 127.21,263.61 125.97,263.46 124.73,263.43 122.59,263.38 120.59,263.93 118.69,264.88 117.53,265.47 116.36,266.04 115.22,266.6 115.9,266.74 116.65,266.89 117.39,267.06 118.67,267.37 119.89,267.82 120.96,268.6 122.11,269.45 122.79,270.58 122.93,271.91 121.85,271.19 120.79,270.37 119.62,269.74 117.97,268.84 116.1,268.75 114.26,268.57 113.84,268.53 113.42,268.49 113.01,268.41 110.76,268.02 109.33,266.53 109.15,264.18 109.06,262.91 109.22,261.62 109.31,260.34 109.41,258.97 109.5,257.61 108.79,256.35 108.63,256.07 108.45,255.81 108.27,255.52 110.22,255.51 111.7,256.64 111.78,258.26 111.84,259.48 111.67,260.7 111.62,261.93 111.6,262.38 111.57,262.85 111.65,263.3 111.88,264.65 112.87,265.3 114.18,264.87 115.54,264.43 116.87,263.86 118.2,263.33 121.52,262.02 124.82,261.93 128.09,263.48 128.22,263.54 128.35,263.61 128.54,263.71 Z M 128.54,263.71" />
        </g>
    </g>
    ...
    // Trial version of PaintCode only generates code for the first 5 shapes.
</svg>
